<svg width="628" height="628" viewBox="0 0 628 628" fill="none" xmlns="http://www.w3.org/2000/svg">
<path fill-rule="evenodd" clip-rule="evenodd" d="M47.0625 470.625V235.312H0V62.75C0 28.2375 28.2375 0 62.75 0H156.875C191.387 0 219.625 28.2375 219.625 62.75V235.312H172.562V470.625H47.0625Z" transform="translate(0 156.876)" fill="black"/>
<path fill-rule="evenodd" clip-rule="evenodd" d="M62.75 125.5C97.5762 125.5 125.5 97.5762 125.5 62.75C125.5 27.9237 97.5762 0 62.75 0C27.9237 0 0 27.9237 0 62.75C0 97.5762 27.9237 125.5 62.75 125.5Z" transform="translate(47.0625)" fill="black"/>
<path fill-rule="evenodd" clip-rule="evenodd" d="M188.25 470.625V282.375H282.375L202.682 42.9837C193.898 17.2563 170.053 0 143.07 0H139.305C112.323 0 88.1637 17.2563 79.6925 42.9837L0 282.375H94.125V470.625H188.25Z" transform="translate(345 156.876)" fill="black"/>
<path fill-rule="evenodd" clip-rule="evenodd" d="M62.75 125.5C97.5762 125.5 125.5 97.5762 125.5 62.75C125.5 27.9237 97.5762 0 62.75 0C27.9237 0 0 27.9237 0 62.75C0 97.5762 27.9237 125.5 62.75 125.5Z" transform="translate(423.438)" fill="black"/>
<path fill-rule="evenodd" clip-rule="evenodd" d="M150.587 113.779C150.587 113.779 133.856 32.3466 60.4429 32.3466V0L0 54.0039L60.4429 109.985V73.5235C100.293 73.5235 129.809 77.0555 150.587 113.779Z" transform="translate(229.234 28.4609)" fill="black"/>
<path fill-rule="evenodd" clip-rule="evenodd" d="M150.587 113.779C150.587 113.779 133.856 32.3466 60.4429 32.3466V0L0 54.0039L60.4429 109.985V73.5235C100.293 73.5235 129.809 77.0555 150.587 113.779Z" transform="translate(379.766 599.539) rotate(-180)" fill="black"/>
</svg>
