<svg width="571" height="571" viewBox="0 0 571 571" fill="none" xmlns="http://www.w3.org/2000/svg">
<path fill-rule="evenodd" clip-rule="evenodd" d="M118.3 537.136C140.569 551.428 166.407 561.106 197.84 560.371C229.302 561.106 255.111 551.456 277.409 537.136V479.15H118.3V537.136V537.136ZM274.064 445.497C274.064 323.439 404.966 284.414 395.173 162.809C388.978 86.0882 336.56 0 197.835 0C59.1394 0 6.72159 86.0882 0.526241 162.809C-9.29496 284.414 121.607 323.439 121.607 445.497H274.064V445.497ZM60.4248 167.216C66.2775 94.3723 116.24 57.4692 197.807 57.4692C279.375 57.4692 329.394 94.4006 335.219 167.216C338.445 207.091 315.291 233.664 284.085 277.218C261.074 309.338 233.866 347.26 221.19 396.587H174.425C161.72 347.26 134.541 309.338 111.529 277.218C80.3527 233.664 57.1986 207.091 60.4248 167.216V167.216Z" transform="translate(93.6929)" fill="black"/>
<path fill-rule="evenodd" clip-rule="evenodd" d="M9.66011 216.528C7.32731 215.009 47.5924 130.396 46.2073 126.678C44.8222 122.96 2.12711 109.389 0.0373099 102.864C-2.05249 96.3276 84.334 -1.85651 86.6061 0.0267438C88.8781 1.92214 48.9654 87.1058 50.0589 89.876C51.1524 92.6462 94.9045 106.789 96.2289 113.69C97.5532 120.591 11.9808 218.046 9.66011 216.528V216.528Z" transform="translate(240.895 80.3506)" fill="black"/>
</svg>
