<svg width="551" height="552" viewBox="0 0 551 552" fill="none" xmlns="http://www.w3.org/2000/svg">
<path fill-rule="evenodd" clip-rule="evenodd" d="M53.958 98.124C78.921 95.8193 98.315 74.313 98.315 49.158C98.315 22.083 76.232 0 49.157 0C22.082 0 0 22.083 0 49.158C0 57.4148 2.3037 65.864 6.1445 72.969L23.6605 319.439L204.061 319.488L278.052 492.858L375.195 454.76L360.153 418.94L305.786 438.565L234.196 273.285L66.4655 274.412L64.1628 243.199L185.583 243.247V197.064L59.5328 197.015L53.9625 98.1328L53.958 98.124Z" transform="translate(142.032)" fill="black"/>
<path fill-rule="evenodd" clip-rule="evenodd" d="M343.42 245.55C312.973 305.738 249.245 345.39 181.27 345.39C81.43 345.39 0 263.96 0 164.12C0 94.019 42.485 28.88 105.88 0L109.982 53.538C72.4855 77.166 49.3705 119.8 49.3705 164.488C49.3705 236.915 108.441 295.988 180.87 295.988C247.132 295.988 303.631 245.136 311.341 179.898L343.422 245.55H343.42Z" transform="translate(34 206.04)" fill="black"/>
</svg>
